<?xml version="1.0" encoding="UTF-8" standalone="no"?>
<svg
   xmlns:dc="http://purl.org/dc/elements/1.1/"
   xmlns:cc="http://creativecommons.org/ns#"
   xmlns:rdf="http://www.w3.org/1999/02/22-rdf-syntax-ns#"
   xmlns:svg="http://www.w3.org/2000/svg"
   xmlns="http://www.w3.org/2000/svg"
   xmlns:sodipodi="http://sodipodi.sourceforge.net/DTD/sodipodi-0.dtd"
   xmlns:inkscape="http://www.inkscape.org/namespaces/inkscape"
   width="8.0375004mm"
   height="8.0375004mm"
   viewBox="0 0 8.0375004 8.0375004"
   version="1.1"
   id="svg8"
   inkscape:version="1.0.1 (3bc2e813f5, 2020-09-07)"
   sodipodi:docname="expand.svg">
  <defs
     id="defs2" />
  <sodipodi:namedview
     id="base"
     pagecolor="#ffffff"
     bordercolor="#666666"
     borderopacity="1.0"
     inkscape:pageopacity="0.0"
     inkscape:pageshadow="2"
     inkscape:zoom="5.6"
     inkscape:cx="50.188986"
     inkscape:cy="31.651427"
     inkscape:document-units="mm"
     inkscape:current-layer="layer1"
     inkscape:document-rotation="0"
     showgrid="true"
     fit-margin-top="0"
     fit-margin-left="0"
     fit-margin-right="0"
     fit-margin-bottom="0"
     inkscape:window-width="1514"
     inkscape:window-height="752"
     inkscape:window-x="122"
     inkscape:window-y="114"
     inkscape:window-maximized="0">
    <inkscape:grid
       type="xygrid"
       id="grid835"
       originx="-92.554168"
       originy="-138.85626" />
  </sodipodi:namedview>
  <metadata
     id="metadata5">
    <rdf:RDF>
      <cc:Work
         rdf:about="">
        <dc:format>image/svg+xml</dc:format>
        <dc:type
           rdf:resource="http://purl.org/dc/dcmitype/StillImage" />
        <dc:title></dc:title>
      </cc:Work>
    </rdf:RDF>
  </metadata>
  <g
     inkscape:label="Layer 1"
     inkscape:groupmode="layer"
     id="layer1"
     transform="translate(-92.554164,-138.85625)">
    <rect
       style="opacity:0.997;fill:none;stroke:#000000;stroke-width:0.1;stroke-miterlimit:4;stroke-dasharray:none"
       id="rect837"
       width="7.9375"
       height="7.9375"
       x="92.604164"
       y="138.90625" />
    <g
       aria-label="+"
       id="text841"
       style="font-size:10.5833px;line-height:1.25;font-family:'Fredoka One';-inkscape-font-specification:'Fredoka One';stroke-width:0.264583">
      <path
         d="m 97.297537,142.01495 h 0.857247 q 0.370416,0 0.539749,0.0952 0.169332,0.0847 0.222249,0.26458 0.0635,0.17992 0.0635,0.48683 0,0.29634 -0.05292,0.47625 -0.05292,0.17992 -0.179916,0.254 -0.190499,0.0952 -0.539748,0.0952 h -0.910164 v 0.85725 q 0,0.37041 -0.09525,0.53975 -0.08467,0.16933 -0.264582,0.23283 -0.179916,0.0529 -0.486832,0.0529 -0.296332,0 -0.476248,-0.0529 -0.179917,-0.0635 -0.254,-0.20108 -0.09525,-0.20109 -0.09525,-0.58208 v -0.84667 h -0.920747 q -0.349249,0 -0.507999,-0.0847 -0.158749,-0.0847 -0.211666,-0.26458 -0.05292,-0.1905 -0.05292,-0.48683 0,-0.29633 0.05292,-0.47625 0.0635,-0.1905 0.211666,-0.26458 0.201083,-0.0952 0.582082,-0.0952 h 0.846664 v -0.85725 q 0,-0.37041 0.08467,-0.53975 0.08467,-0.16933 0.264583,-0.22225 0.190499,-0.0635 0.486831,-0.0635 0.296333,0 0.476249,0.0635 0.190499,0.0529 0.264582,0.1905 0.09525,0.20109 0.09525,0.58209 z"
         style="stroke-width:0.264583"
         id="path861" />
    </g>
  </g>
</svg>
